<?xml version="1.0" encoding="iso-8859-1"?>
<!-- Generator: Adobe Illustrator 19.0.0, SVG Export Plug-In . SVG Version: 6.00 Build 0)  -->
<svg version="1.1" id="Layer_1" xmlns="http://www.w3.org/2000/svg" xmlns:xlink="http://www.w3.org/1999/xlink" x="0px" y="0px"
	 viewBox="0 0 490 490" style="enable-background:new 0 0 490 490;" xml:space="preserve">
<g>
	<path style="fill:#FFC843;" d="M199.793,84.062c0-12.066,3.014-23.437,8.316-33.456l-41.48-41.637c-1.949-1.958-5.14-1.958-7.089,0
		L96.09,72.657c-1.949,1.958-1.949,5.159,0,7.117l65.603,65.853c9.169-16.513,24.672-29.149,43.307-34.794
		C201.653,102.544,199.793,93.519,199.793,84.062z"/>
	<path style="fill:#FFB400;" d="M174.564,128.798L109.51,63.495c-0.802-0.806-1.27-1.815-1.433-2.865L96.09,72.657
		c-1.949,1.958-1.949,5.159,0,7.117l65.603,65.853C165.143,139.414,169.491,133.749,174.564,128.798z"/>
	<path style="fill:#76FFD9;" d="M321.127,107.592c7.644,0,15.016,1.135,21.955,3.238c3.346-8.287,5.195-17.314,5.195-26.769
		c0-40.194-33.239-72.779-74.242-72.779c-41.002,0-74.242,32.585-74.242,72.779c0,9.454,1.859,18.479,5.205,26.766
		c6.936-2.102,14.305-3.235,21.945-3.235c17.879,0,34.269,6.205,47.078,16.527C286.837,113.793,303.242,107.592,321.127,107.592z"/>
	<path style="fill:#5DE0BF;" d="M226.943,107.592c2.771,0,5.503,0.161,8.196,0.451c-2.674-7.51-4.141-15.576-4.141-23.981
		c0-34.946,25.131-64.128,58.639-71.156c-5.032-1.055-10.249-1.623-15.603-1.623c-41.002,0-74.242,32.585-74.242,72.779
		c0,9.454,1.859,18.479,5.205,26.766C211.934,108.726,219.303,107.592,226.943,107.592z"/>
	<path style="fill:#FFFFFF;" d="M246.886,180.371c0-22.67,10.575-42.916,27.15-56.263c-12.814-10.319-29.214-16.517-47.092-16.517
		c-41.002,0-74.241,32.583-74.241,72.779c0,21.935,9.912,41.587,25.569,54.931c0.642-0.55,1.433-0.888,2.299-0.888h90.839
		C256.352,221.094,246.886,201.818,246.886,180.371z"/>
	<path style="fill:#E1EAF8;" d="M180.57,234.414h27.979c-15.068-13.316-24.55-32.588-24.55-54.043
		c0-34.932,25.108-64.101,58.593-71.145c-5.046-1.062-10.278-1.634-15.648-1.634c-41.002,0-74.241,32.583-74.241,72.779
		c0,21.935,9.912,41.587,25.569,54.931C178.913,234.752,179.703,234.414,180.57,234.414z"/>
	<path style="fill:#FFC843;" d="M321.127,107.592c-41.004,0-74.242,32.583-74.242,72.779c0,21.447,9.467,40.723,24.523,54.043H367.5
		c0.867,0,1.657,0.338,2.299,0.888c15.657-13.344,25.569-32.996,25.569-54.931C395.368,140.175,362.13,107.592,321.127,107.592z"/>
	<path style="fill:#FFB400;" d="M271.409,234.414h31.139c-15.068-13.317-24.549-32.589-24.549-54.043
		c0-34.964,25.152-64.156,58.685-71.166c-5.018-1.05-10.219-1.613-15.556-1.613c-41.004,0-74.242,32.583-74.242,72.779
		C246.886,201.818,256.352,221.094,271.409,234.414z"/>
	<path style="fill:#FFC843;" d="M352.184,275.389c-7.399,0-14.004-4.715-17.234-12.301c-0.424-0.997-1.328-1.64-2.302-1.64
		s-1.878,0.643-2.302,1.64c-3.233,7.589-9.837,12.301-17.236,12.301c-7.4,0-14.004-4.715-17.235-12.301
		c-0.424-0.997-1.328-1.64-2.302-1.64c-0.974,0-1.878,0.643-2.302,1.64c-3.232,7.589-9.836,12.301-17.236,12.301
		c-7.399,0-14.003-4.712-17.234-12.301c-0.425-0.997-1.328-1.64-2.302-1.64c-0.976,0-1.878,0.643-2.302,1.638
		c-3.232,7.588-9.836,12.303-17.236,12.303c-7.398,0-14.003-4.712-17.235-12.301c-0.424-0.997-1.327-1.64-2.302-1.64
		c-0.975,0-1.878,0.643-2.301,1.638c-3.231,7.588-9.835,12.303-17.235,12.303c-1.288,0-2.545-0.147-3.762-0.423l80.088,205.604
		c1.003,2.574,2.643,2.574,3.646,0l80.088-205.604C354.729,275.241,353.471,275.389,352.184,275.389z"/>
	<path style="fill:#76FFD9;" d="M352.184,275.389c-7.399,0-14.004-4.715-17.234-12.301c-0.424-0.997-1.328-1.64-2.302-1.64
		s-1.878,0.643-2.302,1.64c-3.233,7.589-9.837,12.301-17.236,12.301c-7.4,0-14.004-4.715-17.235-12.301
		c-0.424-0.997-1.328-1.64-2.302-1.64c-0.974,0-1.878,0.643-2.302,1.64c-3.232,7.589-9.836,12.301-17.236,12.301
		c-7.399,0-14.003-4.712-17.234-12.301c-0.425-0.997-1.328-1.64-2.302-1.64c-0.976,0-1.878,0.643-2.302,1.638
		c-3.232,7.588-9.836,12.303-17.236,12.303c-7.398,0-14.003-4.712-17.235-12.301c-0.424-0.997-1.327-1.64-2.302-1.64
		c-0.975,0-1.878,0.643-2.301,1.638c-3.231,7.588-9.835,12.303-17.235,12.303c-10.56,0-19.152-9.741-19.152-21.718v-14.906
		c0-2.403,1.717-4.351,3.835-4.351H367.5c2.119,0,3.835,1.947,3.835,4.351v14.906C371.335,265.647,362.745,275.389,352.184,275.389z
		"/>
	<path style="fill:#FFB400;" d="M217.725,263.088c-0.424-0.997-1.327-1.64-2.302-1.64c-0.975,0-1.878,0.643-2.301,1.638
		c-3.231,7.588-9.835,12.303-17.235,12.303c-1.288,0-2.545-0.147-3.762-0.423l80.088,205.604c1.003,2.574,2.643,2.574,3.646,0
		l13.869-35.604l-68.735-176.458C219.697,266.927,218.588,265.113,217.725,263.088z"/>
	<path style="fill:#5DE0BF;" d="M197.398,253.671v-14.906c0-2.403,1.717-4.351,3.835-4.351H180.57c-2.118,0-3.835,1.947-3.835,4.351
		v14.906c0,11.977,8.592,21.718,19.152,21.718c3.771,0,7.331-1.229,10.347-3.434C200.925,268.09,197.398,261.342,197.398,253.671z"
		/>
	<ellipse style="fill:#434C54;" cx="183.181" cy="183.376" rx="9.817" ry="9.624"/>
	<ellipse style="fill:#434C54;" cx="218.817" cy="203.376" rx="9.817" ry="9.624"/>
	<ellipse style="fill:#434C54;" cx="220.181" cy="164.376" rx="9.817" ry="9.624"/>
	<ellipse style="fill:#434C54;" cx="187.815" cy="148.624" rx="9.818" ry="9.624"/>
	<path style="fill:#434C54;" d="M402.868,180.371c0-4.143-3.358-7.5-7.5-7.5s-7.5,3.357-7.5,7.5
		c0,18.215-7.669,34.709-20.013,46.562c-0.119-0.004-0.235-0.019-0.355-0.019h-21.502c-4.142,0-7.5,3.357-7.5,7.5
		c0,4.143,3.358,7.5,7.5,7.5h17.837v11.757c0,7.84-5.227,14.218-11.651,14.218c-4.341,0-8.301-2.966-10.332-7.734
		c-1.603-3.771-5.215-6.206-9.205-6.206c-3.989,0-7.602,2.436-9.202,6.2c-2.034,4.775-5.994,7.74-10.336,7.74
		c-4.341,0-8.301-2.966-10.333-7.734c-1.602-3.771-5.215-6.206-9.205-6.206c-3.989,0-7.602,2.436-9.202,6.201
		c-2.033,4.773-5.993,7.739-10.336,7.739c-4.342,0-8.301-2.965-10.335-7.74c-1.604-3.767-5.217-6.2-9.202-6.2
		c-3.986,0-7.598,2.434-9.202,6.198c-2.035,4.775-5.995,7.742-10.336,7.742c-4.341,0-8.302-2.966-10.333-7.734
		c-1.602-3.771-5.215-6.206-9.204-6.206c-3.99,0-7.602,2.436-9.202,6.199c-2.033,4.775-5.993,7.741-10.335,7.741
		c-6.425,0-11.652-6.378-11.652-14.218v-11.757h132.763c4.142,0,7.5-3.357,7.5-7.5c0-4.143-3.358-7.5-7.5-7.5H274.38
		c-12.332-11.851-19.994-28.337-19.994-46.543c0-35.995,29.94-65.279,66.742-65.279c27.343,0,52.358,16.748,62.247,41.676
		c1.528,3.85,5.89,5.73,9.737,4.206c3.85-1.527,5.733-5.887,4.206-9.737c-5.917-14.915-16.143-27.646-29.573-36.818
		c-4.788-3.27-9.872-5.988-15.169-8.159c2.077-7.053,3.202-14.496,3.202-22.197c0-9.921-1.823-19.609-5.418-28.796
		c-1.511-3.857-5.862-5.761-9.718-4.251c-3.857,1.51-5.76,5.86-4.251,9.718c2.911,7.438,4.387,15.287,4.387,23.329
		c0,6.173-0.902,12.139-2.55,17.801c-5.575-1.163-11.296-1.771-17.1-1.771c-17.531,0-33.777,5.467-47.102,14.729
		c-13.32-9.261-29.556-14.729-47.082-14.729c-5.864,0-11.581,0.622-17.097,1.78c-1.649-5.666-2.553-11.635-2.553-17.811
		c0-35.995,29.941-65.279,66.742-65.279c19.201,0,37.486,8.101,50.168,22.226c2.768,3.082,7.509,3.338,10.591,0.57
		c3.082-2.768,3.337-7.51,0.57-10.592c-15.522-17.288-37.875-27.204-61.329-27.204c-27.893,0-52.555,13.8-67.313,34.805
		L171.945,3.678C169.584,1.307,166.437,0,163.085,0c-3.353,0-6.499,1.306-8.858,3.676l-63.451,63.69
		c-4.858,4.88-4.858,12.819,0.001,17.701l61.803,62.038c-4.723,10.143-7.377,21.402-7.377,33.266
		c0,22.208,9.245,42.321,24.138,56.866c-0.062,0.501-0.105,1.009-0.105,1.527v14.906c0,12.455,7.148,23.108,17.182,27.305
		l78.808,202.316c2.425,6.225,7.357,6.708,8.811,6.708c1.454,0,6.387-0.483,8.812-6.708l78.807-202.315
		c10.033-4.196,17.182-14.851,17.182-27.306v-14.906c0-0.519-0.043-1.026-0.105-1.527
		C393.623,222.692,402.868,202.579,402.868,180.371z M332.647,273.572c3.379,4.026,7.713,6.902,12.553,8.318l-1.387,3.56H321.32
		v-3.952C325.665,279.978,329.555,277.256,332.647,273.572z M327.739,326.718h-6.418V300.45h16.65L327.739,326.718z
		 M295.588,409.254h-14.053v-26.268h24.285L295.588,409.254z M242.25,382.986h24.285v26.268h-14.053L242.25,382.986z
		 M266.678,300.45c0.676,3.448,3.711,6.05,7.357,6.05s6.681-2.602,7.357-6.05h24.928v26.268h-24.785V326c0-4.143-3.358-7.5-7.5-7.5
		s-7.5,3.357-7.5,7.5v0.718h-27.732V300.45H266.678z M281.535,367.986v-26.268h24.785v26.268H281.535z M266.535,367.986h-27.732
		v-26.268h27.732V367.986z M223.803,326.718h-3.47L210.1,300.45h13.702V326.718z M293.573,273.572
		c3.424,4.08,7.829,6.978,12.748,8.373v3.505h-24.785v-3.725C286.166,280.26,290.314,277.455,293.573,273.572z M254.497,273.572
		c3.258,3.883,7.406,6.688,12.038,8.153v3.725h-27.732v-2.865C244.904,281.637,250.402,278.452,254.497,273.572z M215.423,273.572
		c2.374,2.828,5.221,5.081,8.38,6.668v5.21h-19.545l-1.387-3.56C207.71,280.475,212.043,277.6,215.423,273.572z M199.051,52.14
		c-1.05,2.37-1.985,4.798-2.802,7.278l-8.4,8.433l-13.803-13.856l13.426-13.477L199.051,52.14z M187.849,89.104l5.126,5.145
		c0.533,4.114,1.393,8.128,2.542,12.022c-3.348,1.375-6.575,2.973-9.681,4.756l-9.913-9.951L187.849,89.104z M165.336,90.448
		l-13.803-13.854l11.926-11.972l13.803,13.854L165.336,90.448z M163.084,16.037l13.802,13.854L163.46,43.369l-13.802-13.854
		L163.084,16.037z M139.071,40.141l13.802,13.854l-11.926,11.972l-13.802-13.854L139.071,40.141z M103.132,76.216l13.426-13.477
		l13.803,13.856l-13.426,13.477L103.132,76.216z M127.521,100.698l13.427-13.477l13.802,13.854l-13.427,13.477L127.521,100.698z
		 M151.909,125.179l13.427-13.478l8.061,8.091c-4.848,4.14-9.194,8.825-12.941,13.966L151.909,125.179z M180.215,226.933
		c-12.344-11.852-20.013-28.347-20.013-46.562c0-27.46,17.433-50.997,42.036-60.624c0.589,4.764,4.721,8.457,9.737,8.457
		c5.422,0,9.819-4.31,9.819-9.625c0-1.136-0.211-2.22-0.579-3.23c1.89-0.158,3.797-0.257,5.728-0.257
		c12.896,0,24.936,3.612,35.151,9.837c-2.796,2.87-5.368,5.95-7.711,9.2c-1.746-2.665-4.79-4.436-8.261-4.436
		c-5.423,0-9.818,4.307-9.818,9.623c0,5.258,4.302,9.524,9.643,9.616c-4.211,9.66-6.563,20.28-6.563,31.438
		c0,17.342,5.644,33.404,15.201,46.543H180.57C180.45,226.914,180.334,226.929,180.215,226.933z M258.325,424.254h8.21v21.078
		L258.325,424.254z M281.535,445.332v-21.078h8.211L281.535,445.332z"/>
	<path style="fill:#434C54;" d="M319.642,143.219c4.142,0,7.5-3.357,7.5-7.5c0-4.143-3.358-7.5-7.5-7.5h-7.639
		c-4.142,0-7.5,3.357-7.5,7.5c0,4.143,3.358,7.5,7.5,7.5H319.642z"/>
	<path style="fill:#434C54;" d="M293.721,162.838c0-4.143-3.358-7.5-7.5-7.5h-7.639c-4.142,0-7.5,3.357-7.5,7.5
		c0,4.143,3.358,7.5,7.5,7.5h7.639C290.363,170.338,293.721,166.98,293.721,162.838z"/>
	<path style="fill:#434C54;" d="M317.732,177.368h7.639c4.142,0,7.5-3.357,7.5-7.5c0-4.143-3.358-7.5-7.5-7.5h-7.639
		c-4.142,0-7.5,3.357-7.5,7.5C310.232,174.011,313.59,177.368,317.732,177.368z"/>
	<path style="fill:#434C54;" d="M359.747,181.452h-7.639c-4.142,0-7.5,3.357-7.5,7.5c0,4.143,3.358,7.5,7.5,7.5h7.639
		c4.142,0,7.5-3.357,7.5-7.5C367.247,184.81,363.889,181.452,359.747,181.452z"/>
	<path style="fill:#434C54;" d="M360.701,146.298h-7.639c-4.142,0-7.5,3.357-7.5,7.5c0,4.143,3.358,7.5,7.5,7.5h7.639
		c4.142,0,7.5-3.357,7.5-7.5C368.201,149.655,364.844,146.298,360.701,146.298z"/>
	<path style="fill:#434C54;" d="M291.95,202.479h7.639c4.142,0,7.5-3.357,7.5-7.5s-3.358-7.5-7.5-7.5h-7.639
		c-4.142,0-7.5,3.357-7.5,7.5S287.808,202.479,291.95,202.479z"/>
</g>
<g>
</g>
<g>
</g>
<g>
</g>
<g>
</g>
<g>
</g>
<g>
</g>
<g>
</g>
<g>
</g>
<g>
</g>
<g>
</g>
<g>
</g>
<g>
</g>
<g>
</g>
<g>
</g>
<g>
</g>
</svg>
