<svg width="40" height="32" viewBox="0 0 40 32" fill="none" xmlns="http://www.w3.org/2000/svg">
<path d="M19.572 31.2179H21.9622C21.9622 31.2179 22.6847 31.1113 23.0523 30.5817C23.3923 30.0954 23.3798 29.1828 23.3798 29.1828C23.3798 29.1828 23.3323 24.9094 24.8224 24.2799C26.29 23.6604 28.1751 28.41 30.1728 30.2386C31.6829 31.6209 32.8305 31.3178 32.8305 31.3178L38.1734 31.2179C38.1734 31.2179 40.9686 30.988 39.6435 28.0603C39.536 27.8205 38.8709 25.8953 35.6707 21.9383C32.3204 17.7949 32.7705 18.4677 36.8058 11.3032C39.2634 6.93991 40.246 4.2753 39.9385 3.13617C39.646 2.05035 37.8383 2.33679 37.8383 2.33679L31.8279 2.38342C31.8279 2.38342 31.3829 2.30348 31.0503 2.56661C30.7278 2.82641 30.5203 3.42595 30.5203 3.42595C30.5203 3.42595 29.5677 6.80335 28.2976 9.67447C25.6199 15.7331 24.5474 16.0529 24.1098 15.6765C23.0923 14.8005 23.3473 12.1526 23.3473 10.274C23.3473 4.40187 24.0148 1.95375 22.0447 1.32091C21.3896 1.11107 20.9096 0.971177 19.237 0.947862C17.0918 0.917885 15.2742 0.957854 14.2466 1.62734C13.5616 2.07366 13.034 3.06956 13.3565 3.12618C13.7541 3.19613 14.6541 3.44927 15.1317 4.31527C15.7492 5.43107 15.7267 7.94247 15.7267 7.94247C15.7267 7.94247 16.0817 14.8538 14.8992 15.7131C14.0866 16.3027 12.974 15.1003 10.5863 9.60119C9.36374 6.78669 8.43868 3.67243 8.43868 3.67243C8.43868 3.67243 8.26116 3.09288 7.94364 2.78311C7.55861 2.40674 7.01857 2.28683 7.01857 2.28683L1.30315 2.33346C1.30315 2.33346 0.445591 2.36677 0.130568 2.86305C-0.149453 3.30604 0.108066 4.21867 0.108066 4.21867C0.108066 4.21867 4.5834 18.1646 9.64877 25.1958C14.2966 31.6409 19.572 31.2179 19.572 31.2179Z" fill="#1E88E5"/>
</svg>
