<?xml version="1.0" encoding="UTF-8" standalone="no"?>
<!-- Created with Inkscape (http://www.inkscape.org/) -->

<svg
   xmlns:dc="http://purl.org/dc/elements/1.1/"
   xmlns:cc="http://creativecommons.org/ns#"
   xmlns:rdf="http://www.w3.org/1999/02/22-rdf-syntax-ns#"
   xmlns:svg="http://www.w3.org/2000/svg"
   xmlns="http://www.w3.org/2000/svg"
   xmlns:sodipodi="http://sodipodi.sourceforge.net/DTD/sodipodi-0.dtd"
   xmlns:inkscape="http://www.inkscape.org/namespaces/inkscape"
   width="27.881416mm"
   height="20.906952mm"
   viewBox="0 0 27.881417 20.906952"
   version="1.1"
   id="svg1428"
   inkscape:version="0.92.3 (2405546, 2018-03-11)"
   sodipodi:docname="horse.svg">
  <defs
     id="defs1422">
    <clipPath
       clipPathUnits="userSpaceOnUse"
       id="clipPath20">
      <path
         d="M 0,500 H 500 V 0 H 0 Z"
         id="path18"
         inkscape:connector-curvature="0" />
    </clipPath>
    <clipPath
       clipPathUnits="userSpaceOnUse"
       id="clipPath44">
      <path
         d="M 0,500 H 500 V 0 H 0 Z"
         id="path42"
         inkscape:connector-curvature="0" />
    </clipPath>
    <clipPath
       clipPathUnits="userSpaceOnUse"
       id="clipPath88">
      <path
         d="M 0,500 H 500 V 0 H 0 Z"
         id="path86"
         inkscape:connector-curvature="0" />
    </clipPath>
  </defs>
  <sodipodi:namedview
     id="base"
     pagecolor="#ffffff"
     bordercolor="#666666"
     borderopacity="1.0"
     inkscape:pageopacity="0.0"
     inkscape:pageshadow="2"
     inkscape:zoom="0.82"
     inkscape:cx="-528.69538"
     inkscape:cy="29.828376"
     inkscape:document-units="mm"
     inkscape:current-layer="layer1"
     showgrid="false"
     fit-margin-top="1"
     fit-margin-right="1"
     fit-margin-bottom="1"
     fit-margin-left="1"
     inkscape:window-width="1853"
     inkscape:window-height="1025"
     inkscape:window-x="67"
     inkscape:window-y="27"
     inkscape:window-maximized="1" />
  <metadata
     id="metadata1425">
    <rdf:RDF>
      <cc:Work
         rdf:about="">
        <dc:format>image/svg+xml</dc:format>
        <dc:type
           rdf:resource="http://purl.org/dc/dcmitype/StillImage" />
        <dc:title></dc:title>
      </cc:Work>
    </rdf:RDF>
  </metadata>
  <g
     inkscape:label="Capa 1"
     inkscape:groupmode="layer"
     id="layer1"
     transform="translate(-73.738152,-110.00547)">
    <g
       id="g82"
       transform="matrix(0.35277777,0,0,-0.35277777,-17.229708,271.45445)"
       style="fill:#000000">
      <g
         id="g84"
         clip-path="url(#clipPath88)"
         style="fill:#000000">
        <g
           id="g90"
           transform="translate(324.8965,446.2031)"
           style="fill:#000000">
          <path
             d="m 0,0 c -0.527,0 -0.955,-0.428 -0.955,-0.955 0,-0.528 0.428,-0.956 0.955,-0.956 0.527,0 0.955,0.428 0.955,0.956 C 0.955,-0.428 0.527,0 0,0"
             style="fill:#000000;fill-opacity:1;fill-rule:nonzero;stroke:none"
             id="path92"
             inkscape:connector-curvature="0" />
        </g>
        <g
           id="g94"
           transform="translate(332.0859,436.5005)"
           style="fill:#000000">
          <path
             d="m 0,0 c -0.106,-0.09 -0.23,-0.203 -0.369,-0.329 -1.292,-1.173 -2.213,-1.776 -2.813,-1.176 -0.456,0.456 -0.725,0.88 -0.964,1.255 -0.068,0.108 -0.138,0.216 -0.21,0.323 1.752,0.777 3.026,2.77 3.724,4.135 0.186,-0.31 0.353,-0.584 0.479,-0.789 C 0.79,1.901 0.542,0.458 0,0 m -9.508,2.807 c -0.197,0.209 -1.302,1.495 -0.821,3.524 l -1.459,0.346 c -0.41,-1.73 0.038,-3.084 0.513,-3.944 -0.458,-0.251 -0.95,-0.645 -1.456,-1.219 -0.205,-0.232 -0.594,-0.602 -1.045,-1.03 -1.605,-1.522 -4.03,-3.821 -4.467,-5.79 -0.484,-2.176 -1.993,-5.241 -2.991,-6.072 -1.242,-1.035 -1.556,-4.048 -1.648,-8.255 -0.066,-3.059 0.344,-7.612 0.861,-9.551 0.35,-1.312 1.264,-3.349 1.851,-4.595 h -3.59 c -0.317,0.176 -1.183,0.78 -1.204,2.123 l -0.006,0.49 c -0.113,11.451 -1.178,15.769 -2.281,17.482 -0.48,0.845 -3.215,5.365 -7.038,5.875 l -0.199,-1.487 c 1.57,-0.209 2.968,-1.351 4.022,-2.516 -1.372,0.406 -2.235,0.252 -3.666,-0.121 l -0.201,-0.052 c -2.686,-0.595 -10.105,-1.696 -12.158,0.313 -0.597,0.582 -1.157,0.906 -1.702,1.007 0.446,1.273 0.72,2.834 0.325,4.42 l -1.455,-0.363 c 0.462,-1.852 -0.272,-3.755 -0.889,-4.925 -0.397,-0.494 -0.707,-1.119 -0.995,-1.707 -0.29,-0.594 -0.62,-1.268 -0.928,-1.52 -0.772,-0.632 -2.397,-2.154 -3.969,-3.626 -1.296,-1.215 -2.522,-2.362 -3.002,-2.758 -0.228,-0.187 -0.659,-0.103 -1.245,0.034 -0.666,0.154 -1.907,0.445 -2.371,-0.747 -0.466,-1.201 -1.475,-6.14 -1.558,-8.354 -0.052,-1.347 0.228,-2.686 0.47,-3.568 h -3.065 c 0.177,2.478 0.792,10.028 1.848,12.4 1.254,2.811 3.855,5.739 4.71,6.701 0.98,1.103 0.324,3.43 -0.636,6.358 -0.133,0.403 -0.255,0.777 -0.351,1.095 -0.772,2.576 -2.143,8.838 1.768,11.458 0.333,0.182 4.199,2.229 7.341,1.93 l 0.868,-0.086 c 8.112,-0.82 19.363,-1.546 23.402,1.597 4.557,3.543 16.43,8.368 19.574,7.464 l 0.404,-0.111 0.308,0.279 c 0.007,0.006 0.664,0.589 2.077,1.154 C -5.601,16.392 -5.643,16.321 -5.685,16.249 -6.044,15.63 -6.588,14.695 -6.036,13.59 -5.653,12.826 -3.256,8.655 -1.558,5.769 -2.059,4.624 -3.937,0.772 -6.288,1.296 -6.343,1.303 -6.392,1.315 -6.45,1.32 -7.757,1.424 -8.756,1.989 -9.167,2.503 -9.266,2.627 -9.384,2.724 -9.508,2.807 m -22.644,-33.393 c 0,-1.303 0.335,-2.415 0.663,-3.193 h -2.529 c -0.238,0 -0.331,0.075 -0.395,0.155 -0.706,0.886 0.092,4.377 0.569,6.463 l 0.191,0.84 c 0.61,2.738 3.196,10.208 4.03,12.592 0.209,-0.092 0.418,-0.185 0.661,-0.301 0.095,-0.046 0.228,-0.146 0.383,-0.355 0.049,-0.083 0.081,-0.142 0.084,-0.147 l 0.013,0.007 c 0.272,-0.426 0.597,-1.19 0.908,-2.563 -2.026,-2.942 -4.578,-11.191 -4.578,-13.498 m -23.818,-2.733 c 0.082,-0.154 0.164,-0.307 0.245,-0.46 h -2.339 c -0.399,0.811 -1.27,2.715 -1.492,4.274 l -0.979,6.899 c 0.709,-0.162 1.623,-0.32 2.382,0.304 0.088,0.072 0.2,0.17 0.323,0.279 -0.827,-6.253 0.589,-8.924 1.86,-11.296 m -9.806,24.401 c -0.039,-1.467 -0.076,-2.853 -0.478,-3.45 -0.537,-0.799 -0.915,-2.32 -1.315,-3.932 -0.237,-0.955 -0.571,-2.301 -0.863,-2.957 -0.08,0.152 -0.179,0.368 -0.295,0.676 -2.121,5.619 -1.379,11.036 2.201,16.099 1.049,1.484 2.201,2.717 3.223,3.677 -0.135,-0.509 -0.233,-1.029 -0.29,-1.554 -2.011,-2.624 -2.113,-5.906 -2.183,-8.559 m 54.763,25.603 c 0.112,-0.02 0.2,-0.042 0.299,-0.064 -4.99,-0.665 -13.317,-4.352 -17.439,-7.259 0.243,1.073 0.642,2.234 0.998,2.631 4.094,4.572 13.664,5.139 16.142,4.692 m 6.319,-2.424 c -0.172,0.344 -0.038,0.64 0.306,1.234 0.133,0.229 0.271,0.465 0.364,0.718 0.326,0.898 -0.173,1.653 -0.809,1.907 l -0.255,0.102 -0.261,-0.087 c -1.165,-0.389 -2.003,-0.831 -2.544,-1.172 -0.449,0.453 -1.288,0.917 -2.854,1.199 -3.062,0.551 -13.083,-0.207 -17.525,-5.168 -0.839,-0.935 -1.453,-3.364 -1.579,-4.736 -4.943,-2.343 -17.12,-1.114 -21.326,-0.689 l -0.876,0.087 c -3.755,0.361 -8.056,-2.025 -8.238,-2.127 L -60.339,5.5 c -0.331,-0.219 -0.626,-0.46 -0.899,-0.715 -1.013,-0.672 -14.214,-9.792 -8.892,-23.896 0.36,-0.954 0.845,-1.923 1.708,-1.923 0.024,0 0.047,0 0.07,0.002 1.171,0.069 1.596,1.78 2.239,4.371 0.335,1.348 0.714,2.877 1.103,3.455 0.646,0.959 0.687,2.483 0.734,4.248 0.045,1.679 0.11,3.631 0.702,5.419 0.17,-1.644 0.536,-3.126 0.833,-4.116 0.099,-0.33 0.225,-0.716 0.362,-1.133 0.391,-1.189 1.427,-4.347 0.941,-4.894 -0.893,-1.005 -3.611,-4.063 -4.959,-7.087 -1.374,-3.084 -2.003,-13.282 -2.03,-13.714 l -0.048,-0.796 h 6.779 l -0.39,1.018 c -0.007,0.02 -0.77,2.041 -0.696,3.992 0.053,1.392 0.534,4.122 0.965,6.026 l 0.777,-5.473 c 0.324,-2.289 1.791,-5.05 1.853,-5.167 l 0.212,-0.396 h 5.611 l -0.47,1.055 c -0.245,0.551 -0.525,1.075 -0.813,1.613 -1.277,2.383 -2.718,5.088 -1.407,12.218 0.31,0.289 0.637,0.595 0.976,0.913 1.48,1.387 3.159,2.959 3.892,3.559 0.562,0.459 0.933,1.218 1.327,2.022 0.058,0.119 0.121,0.247 0.185,0.375 0.113,0.154 0.403,0.574 0.729,1.173 0.115,0.123 0.23,0.208 0.341,0.227 0.235,0.034 0.619,-0.186 1.064,-0.622 3.001,-2.932 12.461,-0.941 13.557,-0.698 l 0.228,0.059 c 1.114,0.291 1.731,0.441 2.726,0.178 -0.83,-2.368 -3.45,-9.919 -4.089,-12.788 l -0.189,-0.832 c -0.672,-2.944 -1.435,-6.281 -0.279,-7.732 0.376,-0.471 0.918,-0.72 1.568,-0.72 h 3.764 l 1.421,0.002 -0.804,1.174 c -0.009,0.015 -1.015,1.507 -1.015,3.517 0,1.753 1.823,7.836 3.487,11.204 0.36,-2.545 0.642,-6.287 0.695,-11.799 l 0.006,-0.498 c 0.04,-2.628 2.16,-3.509 2.251,-3.546 l 0.134,-0.054 h 5.104 1.213 l -0.542,1.085 c -0.017,0.036 -1.784,3.585 -2.267,5.397 -0.48,1.798 -0.874,6.236 -0.811,9.132 0.034,1.564 0.137,6.325 1.109,7.134 1.355,1.13 2.992,4.636 3.495,6.9 0.338,1.521 2.651,3.715 4.034,5.027 0.496,0.471 0.889,0.843 1.138,1.125 0.752,0.854 1.214,1.034 1.267,1.045 0.596,-0.744 1.899,-1.592 3.77,-1.741 0.632,-0.051 0.754,-0.243 1.158,-0.879 0.265,-0.418 0.596,-0.939 1.169,-1.511 1.732,-1.733 3.939,0.271 4.882,1.127 0.124,0.112 0.234,0.213 0.329,0.293 1.121,0.948 1.484,3.21 0.153,5.355 -1.142,1.839 -5.326,9.071 -5.816,10.051"
             style="fill:#000000;fill-opacity:1;fill-rule:nonzero;stroke:none"
             id="path96"
             inkscape:connector-curvature="0" />
        </g>
        <g
           id="g98"
           transform="translate(273.6562,436.7476)"
           style="fill:#000000">
          <path
             d="m 0,0 c -0.373,-1.214 -0.315,-2.306 -0.313,-2.352 l 1.498,0.084 c -0.001,0.009 -0.042,0.88 0.249,1.828 z"
             style="fill:#000000;fill-opacity:1;fill-rule:nonzero;stroke:none"
             id="path100"
             inkscape:connector-curvature="0" />
        </g>
        <g
           id="g102"
           transform="translate(278.1738,440.2021)"
           style="fill:#000000">
          <path
             d="m 0,0 c -1.481,-0.047 -2.662,-0.573 -3.51,-1.563 l 1.141,-0.976 c 0.569,0.666 1.359,1.006 2.416,1.04 2.749,0.088 5.155,-0.781 5.18,-0.79 l 0.516,1.408 C 5.635,-0.841 3.039,0.098 0,0"
             style="fill:#000000;fill-opacity:1;fill-rule:nonzero;stroke:none"
             id="path104"
             inkscape:connector-curvature="0" />
        </g>
      </g>
    </g>
  </g>
</svg>
