<svg width="25" height="32" viewBox="0 0 25 32" fill="none" xmlns="http://www.w3.org/2000/svg">
<path d="M17.1875 0.940918H7.8125C3.49844 0.940918 0 5.19572 0 10.4425V21.8444C0 27.0911 3.49844 31.3459 7.8125 31.3459H17.1875C21.5016 31.3459 25 27.0911 25 21.8444V10.4425C25 5.19572 21.5016 0.940918 17.1875 0.940918ZM22.6562 21.8444C22.6562 25.512 20.2031 28.4955 17.1875 28.4955H7.8125C4.79688 28.4955 2.34375 25.512 2.34375 21.8444V10.4425C2.34375 6.77488 4.79688 3.79139 7.8125 3.79139H17.1875C20.2031 3.79139 22.6562 6.77488 22.6562 10.4425V21.8444Z" fill="url(#paint0_linear)"/>
<path d="M12.25 8.9469C8.79844 8.9469 6 12.3503 6 16.5481C6 20.7459 8.79844 24.1493 12.25 24.1493C15.7016 24.1493 18.5 20.7459 18.5 16.5481C18.5 12.3503 15.7016 8.9469 12.25 8.9469ZM12.25 21.2988C10.0969 21.2988 8.34375 19.1667 8.34375 16.5481C8.34375 13.9276 10.0969 11.7973 12.25 11.7973C14.4031 11.7973 16.1562 13.9276 16.1562 16.5481C16.1562 19.1667 14.4031 21.2988 12.25 21.2988Z" fill="url(#paint1_linear)"/>
<path d="M19.2188 8.98511C19.6788 8.98511 20.0516 8.5316 20.0516 7.97217C20.0516 7.41274 19.6788 6.95923 19.2188 6.95923C18.7589 6.95923 18.386 7.41274 18.386 7.97217C18.386 8.5316 18.7589 8.98511 19.2188 8.98511Z" fill="url(#paint2_linear)"/>
<defs>
<linearGradient id="paint0_linear" x1="2.28851" y1="28.5628" x2="26.6587" y2="8.52457" gradientUnits="userSpaceOnUse">
<stop stop-color="#FFC107"/>
<stop offset="0.507" stop-color="#F44336"/>
<stop offset="0.99" stop-color="#9C27B0"/>
</linearGradient>
<linearGradient id="paint1_linear" x1="7.8307" y1="21.9228" x2="18.3775" y2="13.2508" gradientUnits="userSpaceOnUse">
<stop stop-color="#FFC107"/>
<stop offset="0.507" stop-color="#F44336"/>
<stop offset="0.99" stop-color="#9C27B0"/>
</linearGradient>
<linearGradient id="paint2_linear" x1="18.63" y1="8.68854" x2="20.0354" y2="7.5329" gradientUnits="userSpaceOnUse">
<stop stop-color="#FFC107"/>
<stop offset="0.507" stop-color="#F44336"/>
<stop offset="0.99" stop-color="#9C27B0"/>
</linearGradient>
</defs>
</svg>
