<svg width="96" height="96" viewBox="0 0 96 96" fill="none" xmlns="http://www.w3.org/2000/svg">
<path d="M47.3001 49.796C45.3041 46.578 43.8561 43.91 41.8501 38.886C38.4581 30.4 62.4801 22.732 52.7401 7.99805C56.9621 18.176 37.5861 24.468 35.7861 32.944C34.1401 40.74 47.2901 49.796 47.3001 49.796Z" fill="#F44336"/>
<path d="M47.7561 34.54C47.3721 39.572 52.2141 42.254 52.3541 45.93C52.4661 48.922 49.4601 51.416 49.4601 51.416C49.4601 51.416 54.9161 50.344 56.6181 45.78C58.5081 40.712 52.9501 37.242 53.5221 33.184C54.0561 29.308 65.5841 22.098 65.5841 22.098C65.5841 22.098 48.6221 23.222 47.7561 34.54Z" fill="#F44336"/>
<path d="M64.1682 50.11C67.6762 49.322 70.6342 51.556 70.6342 54.13C70.6342 59.932 62.5922 65.416 62.5922 65.416C62.5922 65.416 75.0422 63.932 75.0422 54.406C75.0422 48.106 68.9282 46.532 64.1682 50.11ZM58.2582 54.79C58.2582 54.79 62.1402 52.024 63.1742 50.986C53.6482 53.008 31.8982 53.28 31.8982 51.524C31.8982 49.906 38.9122 48.248 38.9122 48.248C38.9122 48.248 23.3662 48.024 23.3662 52.61C23.3662 57.39 43.7162 57.732 58.2582 54.79Z" fill="#1565C0"/>
<path d="M55.8699 59.142C46.8519 62.14 30.2419 61.182 35.1619 57.156C32.7659 57.156 29.2139 59.082 29.2139 60.934C29.2139 64.648 47.1779 67.516 60.4739 62.078L55.8699 59.142Z" fill="#1565C0"/>
<path d="M37.3719 65.478C34.0999 65.478 31.9819 67.586 31.9819 69.122C31.9819 73.904 51.5019 74.386 59.2359 69.532L54.3199 66.268C48.5419 68.808 34.0279 69.158 37.3719 65.478Z" fill="#1565C0"/>
<path d="M72.562 73.2641C72.562 71.3921 70.452 70.5101 69.696 70.0881C74.152 80.8341 25.062 80.0001 25.062 73.6561C25.062 72.2141 28.676 70.8021 32.016 71.4701L29.176 69.7921C22.52 68.7481 18 71.6741 18 74.0341C18 85.0401 72.562 84.5101 72.562 73.2641Z" fill="#1565C0"/>
<path d="M78.0001 77.208C69.7081 85.398 48.6821 88.382 27.5381 83.322C48.6821 92.328 77.9001 87.256 78.0001 77.208Z" fill="#1565C0"/>
</svg>
