<svg width="96" height="96" viewBox="0 0 96 96" fill="none" xmlns="http://www.w3.org/2000/svg">
<path d="M48 12L35.98 24.7L23.94 37.38L12 50V12H48Z" fill="#0D91D6"/>
<path d="M48 12H47.92L35.94 24.66L23.92 37.36L12 49.94V50V50.18V84L29.38 66.62L41.74 54.26L54.12 41.88L66.5 29.5L84 12H48Z" fill="#F88909"/>
<path d="M29.38 66.62L12 84V50.18L29.38 66.62Z" fill="#C757BC"/>
<path d="M41.74 54.26L29.38 66.62L12 50.18V50L23.94 37.38L41.74 54.26Z" fill="#D3638F"/>
<path d="M54.1199 41.88L41.7399 54.26L23.9399 37.38L35.9799 24.7L54.1199 41.88Z" fill="#E07063"/>
<path d="M66.5 29.5L54.12 41.88L35.98 24.7L48 12L66.5 29.5Z" fill="#EC7D36"/>
<path d="M84 12L66.5 29.5L48 12H84Z" fill="#F88909"/>
<path d="M23.02 38.3L15.98 45.76L12 42V27.88L23.02 38.3Z" fill="#0095D5"/>
<path d="M30.06 30.84L23.02 38.3L12 27.88V13.74L30.06 30.84Z" fill="#2B88DA"/>
<path d="M37.12 23.4L30.06 30.84L12 13.74V12H25.06L37.12 23.4Z" fill="#557BDE"/>
<path d="M44.1601 15.94L37.1201 23.4L25.0601 12H48.0001L44.1601 15.94Z" fill="#806EE3"/>
<path d="M46 50L12 84H18.7H35.04H80L46 50Z" fill="#0095D5"/>
<path d="M51.36 84H35.04L23.52 72.5L31.68 64.34L51.36 84Z" fill="#2B88DA"/>
<path d="M67.7202 84H51.3602L31.6802 64.34L39.8402 56.18L67.7202 84Z" fill="#557BDE"/>
<path d="M83.9998 84H67.7198L39.8398 56.18L47.9998 48L83.9998 84Z" fill="#806EE3"/>
</svg>
