<svg width="112" height="73" viewBox="0 0 112 73" fill="none" xmlns="http://www.w3.org/2000/svg">
<path d="M108.167 26.3248C106.538 26.3248 106.538 25.0372 106.538 24.4191C106.538 21.2772 106.538 17.6718 106.538 14.5814C106.389 14.5299 101.055 22.1528 98.9316 25.2947C98.3389 26.1703 98.0426 26.1188 96.8079 26.2218C95.2768 26.3248 95.2768 25.1402 95.2768 24.5736C95.2768 19.526 95.2768 14.3754 95.2768 9.17321C95.2768 8.60664 95.2768 7.422 96.9066 7.422C98.5859 7.422 98.5859 8.60664 98.5859 9.22472C98.5859 12.4181 98.5859 16.3326 98.5859 19.526C98.734 19.5775 103.871 11.6455 105.747 8.70966C106.192 8.04007 106.538 7.57652 108.118 7.57652C109.649 7.57652 109.748 8.45212 109.748 8.86418C109.748 13.8603 109.748 19.0109 109.748 24.3161C109.847 24.9342 109.847 26.3248 108.167 26.3248Z" fill="black"/>
<path d="M105.896 1.34427C108.513 1.34427 105.945 5.05273 102.488 5.05273C99.2279 5.05273 96.6103 1.29277 99.228 1.34427C100.907 1.34427 100.512 2.63193 102.537 2.63193C104.463 2.58043 104.266 1.34427 105.896 1.34427Z" fill="black"/>
<path d="M42.5785 7.21606C44.4059 7.21606 44.4059 8.3492 44.4059 8.91577C44.4059 10.2549 44.3565 11.5941 44.4552 12.9848C44.554 15.6631 45.4924 16.4872 48.2582 16.4357C49.7893 16.3842 51.6167 16.4357 51.6167 16.4357C51.6167 16.4357 51.6661 14.2724 51.6661 12.9333C51.6661 11.9031 51.6661 10.2549 51.7155 9.22481C51.7155 8.60674 51.6167 7.4736 53.6416 7.4736C55.3703 7.4736 55.3703 8.65824 55.3703 9.22481C55.3703 14.2209 55.3703 19.2171 55.3703 24.3162C55.3703 24.9858 55.3703 26.3764 53.5923 26.3764C51.7649 26.3764 51.7649 24.9858 51.7649 24.3162C51.7649 22.771 51.7649 21.3803 51.7649 19.7836C49.5423 19.8351 47.6162 19.7836 45.7394 19.6291C42.3809 19.3201 40.8992 17.4658 40.8004 14.0149C40.7511 12.3667 40.7511 10.7185 40.8004 9.07029C40.6029 8.76126 40.6029 7.21606 42.5785 7.21606Z" fill="black"/>
<path d="M4.10423 7.21606C2.37561 7.21606 2.37561 8.70975 2.37561 8.70975V24.8828C2.37561 24.8828 2.37561 26.2219 4.05484 26.2219C5.58591 26.2219 5.58591 24.8828 5.58591 24.8828V17.7749L13.3894 17.8264V24.7797C13.3894 24.7797 13.4882 26.2219 15.0193 26.2219C16.6491 26.2219 16.6491 24.8828 16.6491 24.8828V8.70975C16.6491 8.70975 16.6491 7.21606 15.0686 7.21606C13.34 7.21606 13.3894 8.70975 13.3894 8.70975V14.53H5.68469V8.70975C5.68469 8.70975 5.73408 7.21606 4.10423 7.21606Z" fill="black"/>
<path d="M29.441 6.03137C38.3804 6.03137 38.3804 16.0236 38.3804 16.0236C38.3804 16.0236 38.3804 26.1704 29.441 26.1704C20.1064 26.1704 20.1064 16.1266 20.1064 16.1266C20.1064 16.1266 20.1064 6.03137 29.441 6.03137Z" fill="black"/>
<path d="M29.2928 9.32776C35.0219 9.32776 35.0219 16.1266 35.0219 16.1266C35.0219 16.1266 35.0219 23.183 29.2928 23.183C23.7118 23.183 23.7118 16.1266 23.7118 16.1266C23.7118 16.1266 23.7118 9.32776 29.2928 9.32776Z" fill="white"/>
<path d="M60.3092 7.31897C58.5806 7.31897 58.5806 8.81266 58.5806 8.81266V24.9857C58.5806 24.9857 58.5806 26.3248 60.2598 26.3248C61.7909 26.3248 61.7909 24.9857 61.7909 24.9857V17.8778L69.5944 17.9293V24.8826C69.5944 24.8826 69.6932 26.3248 71.2242 26.3248C72.8541 26.3248 72.8541 24.9857 72.8541 24.9857V8.86416C72.8541 8.86416 72.8541 7.37048 71.2736 7.37048C69.545 7.37048 69.5944 8.86416 69.5944 8.86416V14.6844H61.8897V8.86416C61.8897 8.86416 61.9391 7.31897 60.3092 7.31897Z" fill="black"/>
<path d="M84.3124 6.18591C93.2518 6.18591 93.2518 16.1782 93.2518 16.1782C93.2518 16.1782 93.2518 26.3249 84.3124 26.3249C74.9778 26.3249 74.9778 16.2812 74.9778 16.2812C74.9778 16.2812 74.9778 6.18591 84.3124 6.18591Z" fill="black"/>
<path d="M84.1642 9.4823C89.8934 9.4823 89.8934 16.2811 89.8934 16.2811C89.8934 16.2811 89.8934 23.3375 84.1642 23.3375C78.5833 23.286 78.5833 16.2296 78.5833 16.2296C78.5833 16.2296 78.5833 9.4823 84.1642 9.4823Z" fill="white"/>
<path d="M2.42502 32.4541C14.5254 32.4541 26.5764 32.4541 38.6767 32.4541C57.9385 32.4541 77.2497 32.4541 96.5115 32.4541C100.957 32.4541 105.402 32.4541 109.847 32.4541C111.427 32.4541 111.427 29.8788 109.847 29.8788C97.7463 29.8788 85.6953 29.8788 73.5949 29.8788C54.3331 29.8788 35.0219 29.8788 15.7601 29.8788C11.3151 29.8788 6.87005 29.8788 2.42502 29.8788C0.795175 29.8788 0.795175 32.4541 2.42502 32.4541Z" fill="black"/>
<path d="M26.3788 55.735C26.3788 57.0226 28.058 57.0226 28.058 57.0226C28.058 57.0226 29.2928 57.0226 29.7866 57.0226C32.5524 57.0226 32.503 53.8292 32.503 53.8292V41.6222L38.7261 41.5192V55.0139C38.7261 55.0139 38.7755 57.0741 40.5041 57.0741C42.2327 57.0741 42.2327 54.9624 42.2327 54.9624C42.2327 54.9624 42.2327 43.94 42.2327 40.2315C42.2327 38.8924 41.7388 38.3258 40.0102 38.3258C37.3926 38.3258 33.1945 38.3258 31.3671 38.3258C29.836 38.3258 29.5397 39.2529 29.5397 40.3346C29.5397 43.3219 29.5397 52.9021 29.5397 52.9021C29.5397 52.9021 29.6385 53.6747 29.2434 54.0353C28.7989 54.4988 28.2062 54.4988 28.2062 54.4988C28.2062 54.4988 26.3788 54.4473 26.3788 55.735Z" fill="black"/>
<path d="M48.2088 38.2229L56.5062 38.1714C56.5062 38.1714 57.9879 38.2229 57.9879 39.4075C57.9879 40.9012 56.4568 40.9012 56.4568 40.9012H49.0978V45.7428H56.0123C56.0123 45.7428 57.3458 45.8458 57.3458 47.0305C57.3458 48.4212 56.0617 48.4727 56.0617 48.4727H49.1472V54.3444H56.4568C56.4568 54.3444 57.9385 54.3959 57.9385 55.6321C57.9385 56.9197 56.4568 56.9197 56.4568 56.9197H48.0607C48.0607 56.9197 46.2827 56.5077 46.2827 55.1685C46.2827 51.46 46.2827 43.6826 46.2827 40.1801C46.2827 38.2229 48.2088 38.2229 48.2088 38.2229Z" fill="black"/>
<path d="M62.9269 37.8108C61.0995 37.8108 61.0995 39.562 61.0995 39.562V54.6019C61.0995 54.6019 61.0995 56.5076 62.9269 56.5076C64.6555 56.5076 64.7543 54.5504 64.7543 54.5504V48.5241H66.0878C66.0878 48.5241 68.4585 49.9148 70.434 55.632C70.5328 55.941 71.2243 56.5076 72.9529 56.5076C74.5827 56.5076 75.2248 56.0441 74.8791 55.323C73.8419 52.8507 70.434 47.0304 68.1127 46.7729C68.1127 46.7729 70.1377 46.1548 70.7798 43.8885C71.6688 40.7982 71.7675 40.5921 73.5456 40.3861C74.0394 40.3346 74.9778 40.0256 74.9778 38.9954C74.9778 37.7593 73.5949 37.7593 73.5949 37.7593C73.5949 37.7593 69.4956 37.2957 68.5572 41.5193C67.8164 45.0732 64.7049 45.1762 64.7049 45.1762V39.5105C64.7543 39.5105 64.7543 37.8108 62.9269 37.8108Z" fill="black"/>
<path d="M15.2168 37.5017C26.3788 37.5017 26.3788 47.4939 26.3788 47.4939C26.3788 47.4939 26.3788 57.6407 15.2168 57.6407C3.61035 57.6407 3.61036 47.597 3.61036 47.597C3.61036 47.597 3.56096 37.5017 15.2168 37.5017Z" fill="black"/>
<path d="M14.9699 40.7466C22.082 40.7466 23.0204 44.6611 23.0204 47.5454C23.0204 50.4813 22.082 54.6018 14.9699 54.6018C8.00602 54.6018 6.82068 50.4813 6.82068 47.5454C6.82068 44.6096 8.05541 40.7466 14.9699 40.7466Z" fill="white"/>
<path d="M15.0687 19.8351C16.6492 19.8351 16.7479 24.9342 16.6492 24.7282C16.5504 24.5222 16.6492 70.1053 16.6492 70.1053C16.6492 70.1053 16.6985 71.908 15.0687 71.908C13.6858 71.908 13.6858 69.6418 13.6858 69.6418L13.3895 24.1616C13.3895 24.1616 13.3895 19.8351 15.0687 19.8351Z" fill="black"/>
<path d="M88.3129 42.0858C88.3129 42.0858 89.2019 43.837 90.8318 43.2704C92.3629 42.7554 91.4245 40.7981 91.4245 40.7981C91.4245 40.7981 90.4367 37.4502 85.1026 37.4502C75.7681 37.4502 76.4595 46.9274 76.4595 46.9274C76.4595 46.9274 76.262 56.4561 84.8557 56.5076C90.8812 56.5076 91.8196 51.9235 91.8196 51.9235C91.8196 51.9235 92.4616 50.5843 91.0293 49.9662C89.6958 49.3997 89.1032 50.1208 88.8562 50.6358C88.3623 51.7175 88.1648 53.1081 84.8557 53.1081C80.1637 53.1081 80.4107 47.2879 80.4107 47.2879C80.4107 47.2879 79.6698 40.4891 85.0039 40.4891C87.5721 40.5406 88.3129 42.0858 88.3129 42.0858Z" fill="black"/>
</svg>
